<svg viewBox="0 0 960 658" xmlns="http://www.w3.org/2000/svg" role="img" aria-labelledby="t d" font-family="ui-sans-serif,system-ui,sans-serif"><title id="t">HLG coherence geometry across three models</title><desc id="d">Cross-pair coherence grids for e4b, 12B and CPM5. The sharpness cluster (s_m×tg, A×tg) replicates across all three; the window axis (s_m×W, A×W) tracks vocab size — the two Gemmas agree, CPM5 diverges.</desc><text x="480" y="26" text-anchor="middle" font-size="17" font-weight="700" fill="var(--text-primary,#1f2937)">Does the geometry generalize? Cross-pair coherence across 3 models</text><text x="480" y="46" text-anchor="middle" font-size="12" fill="var(--text-secondary,#6b7280)">green = coherent · red ✗ = canary broke · each grid is 4×4 over the break-spanning ranges</text><text x="288" y="78" text-anchor="middle" font-size="13" font-weight="700" fill="var(--text-primary,#1f2937)">e4b</text><text x="288" y="93" text-anchor="middle" font-size="9.5" fill="var(--text-tertiary,#9ca3af)">Gemma · 262k</text><text x="518" y="78" text-anchor="middle" font-size="13" font-weight="700" fill="var(--text-primary,#1f2937)">12B</text><text x="518" y="93" text-anchor="middle" font-size="9.5" fill="var(--text-tertiary,#9ca3af)">Gemma · 262k</text><text x="748" y="78" text-anchor="middle" font-size="13" font-weight="700" fill="var(--text-primary,#1f2937)">CPM5</text><text x="748" y="93" text-anchor="middle" font-size="9.5" fill="var(--text-tertiary,#9ca3af)">Llama · ~73k</text><rect x="14" y="108" width="932" height="244" rx="8" fill="var(--positive,#16a34a)" fill-opacity="0.05" stroke="var(--positive,#16a34a)" stroke-opacity="0.35"/><text x="26" y="124" font-size="12" font-weight="700" fill="var(--positive,#16a34a)">Replicates across all 3 — the sharpness cluster</text><text x="150" y="180" text-anchor="end" font-size="12.5" font-weight="600" fill="var(--text-primary,#1f2937)">s_m × target_gap</text><rect x="262" y="146" width="17.5" height="17.5" rx="2" fill="var(--positive,#16a34a)" fill-opacity="0.22" stroke="var(--positive,#16a34a)" stroke-opacity="0.4"/><rect x="281" y="146" width="17.5" height="17.5" rx="2" fill="var(--positive,#16a34a)" fill-opacity="0.22" stroke="var(--positive,#16a34a)" stroke-opacity="0.4"/><rect x="300" y="146" width="17.5" height="17.5" rx="2" fill="var(--positive,#16a34a)" fill-opacity="0.22" stroke="var(--positive,#16a34a)" stroke-opacity="0.4"/><rect x="319" y="146" width="17.5" height="17.5" rx="2" fill="var(--positive,#16a34a)" fill-opacity="0.22" stroke="var(--positive,#16a34a)" stroke-opacity="0.4"/><rect x="262" y="165" width="17.5" height="17.5" rx="2" fill="#ef4444" fill-opacity="0.34" stroke="#ef4444" stroke-opacity="0.4"/><text x="270.75" y="177.25" text-anchor="middle" font-size="10" fill="#b91c1c">✗</text><rect x="281" y="165" width="17.5" height="17.5" rx="2" fill="var(--positive,#16a34a)" fill-opacity="0.22" stroke="var(--positive,#16a34a)" stroke-opacity="0.4"/><rect x="300" y="165" width="17.5" height="17.5" rx="2" fill="var(--positive,#16a34a)" fill-opacity="0.22" stroke="var(--positive,#16a34a)" stroke-opacity="0.4"/><rect x="319" y="165" width="17.5" height="17.5" rx="2" fill="var(--positive,#16a34a)" fill-opacity="0.22" stroke="var(--positive,#16a34a)" stroke-opacity="0.4"/><rect x="262" y="184" width="17.5" height="17.5" rx="2" fill="#ef4444" fill-opacity="0.34" stroke="#ef4444" stroke-opacity="0.4"/><text x="270.75" y="196.25" text-anchor="middle" font-size="10" fill="#b91c1c">✗</text><rect x="281" y="184" width="17.5" height="17.5" rx="2" fill="#ef4444" fill-opacity="0.34" stroke="#ef4444" stroke-opacity="0.4"/><text x="289.75" y="196.25" text-anchor="middle" font-size="10" fill="#b91c1c">✗</text><rect x="300" y="184" width="17.5" height="17.5" rx="2" fill="var(--positive,#16a34a)" fill-opacity="0.22" stroke="var(--positive,#16a34a)" stroke-opacity="0.4"/><rect x="319" y="184" width="17.5" height="17.5" rx="2" fill="var(--positive,#16a34a)" fill-opacity="0.22" stroke="var(--positive,#16a34a)" stroke-opacity="0.4"/><rect x="262" y="203" width="17.5" height="17.5" rx="2" fill="#ef4444" fill-opacity="0.34" stroke="#ef4444" stroke-opacity="0.4"/><text x="270.75" y="215.25" text-anchor="middle" font-size="10" fill="#b91c1c">✗</text><rect x="281" y="203" width="17.5" height="17.5" rx="2" fill="#ef4444" fill-opacity="0.34" stroke="#ef4444" stroke-opacity="0.4"/><text x="289.75" y="215.25" text-anchor="middle" font-size="10" fill="#b91c1c">✗</text><rect x="300" y="203" width="17.5" height="17.5" rx="2" fill="var(--positive,#16a34a)" fill-opacity="0.22" stroke="var(--positive,#16a34a)" stroke-opacity="0.4"/><rect x="319" y="203" width="17.5" height="17.5" rx="2" fill="var(--positive,#16a34a)" fill-opacity="0.22" stroke="var(--positive,#16a34a)" stroke-opacity="0.4"/><text x="256" y="184" text-anchor="middle" font-size="9" fill="var(--text-tertiary,#9ca3af)" transform="rotate(-90 256 184)">s_m →</text><text x="300" y="233" text-anchor="middle" font-size="9" fill="var(--text-tertiary,#9ca3af)">tg →</text><rect x="492" y="146" width="17.5" height="17.5" rx="2" fill="var(--positive,#16a34a)" fill-opacity="0.22" stroke="var(--positive,#16a34a)" stroke-opacity="0.4"/><rect x="511" y="146" width="17.5" height="17.5" rx="2" fill="var(--positive,#16a34a)" fill-opacity="0.22" stroke="var(--positive,#16a34a)" stroke-opacity="0.4"/><rect x="530" y="146" width="17.5" height="17.5" rx="2" fill="var(--positive,#16a34a)" fill-opacity="0.22" stroke="var(--positive,#16a34a)" stroke-opacity="0.4"/><rect x="549" y="146" width="17.5" height="17.5" rx="2" fill="var(--positive,#16a34a)" fill-opacity="0.22" stroke="var(--positive,#16a34a)" stroke-opacity="0.4"/><rect x="492" y="165" width="17.5" height="17.5" rx="2" fill="#ef4444" fill-opacity="0.34" stroke="#ef4444" stroke-opacity="0.4"/><text x="500.75" y="177.25" text-anchor="middle" font-size="10" fill="#b91c1c">✗</text><rect x="511" y="165" width="17.5" height="17.5" rx="2" fill="var(--positive,#16a34a)" fill-opacity="0.22" stroke="var(--positive,#16a34a)" stroke-opacity="0.4"/><rect x="530" y="165" width="17.5" height="17.5" rx="2" fill="var(--positive,#16a34a)" fill-opacity="0.22" stroke="var(--positive,#16a34a)" stroke-opacity="0.4"/><rect x="549" y="165" width="17.5" height="17.5" rx="2" fill="var(--positive,#16a34a)" fill-opacity="0.22" stroke="var(--positive,#16a34a)" stroke-opacity="0.4"/><rect x="492" y="184" width="17.5" height="17.5" rx="2" fill="#ef4444" fill-opacity="0.34" stroke="#ef4444" stroke-opacity="0.4"/><text x="500.75" y="196.25" text-anchor="middle" font-size="10" fill="#b91c1c">✗</text><rect x="511" y="184" width="17.5" height="17.5" rx="2" fill="#ef4444" fill-opacity="0.34" stroke="#ef4444" stroke-opacity="0.4"/><text x="519.75" y="196.25" text-anchor="middle" font-size="10" fill="#b91c1c">✗</text><rect x="530" y="184" width="17.5" height="17.5" rx="2" fill="var(--positive,#16a34a)" fill-opacity="0.22" stroke="var(--positive,#16a34a)" stroke-opacity="0.4"/><rect x="549" y="184" width="17.5" height="17.5" rx="2" fill="var(--positive,#16a34a)" fill-opacity="0.22" stroke="var(--positive,#16a34a)" stroke-opacity="0.4"/><rect x="492" y="203" width="17.5" height="17.5" rx="2" fill="#ef4444" fill-opacity="0.34" stroke="#ef4444" stroke-opacity="0.4"/><text x="500.75" y="215.25" text-anchor="middle" font-size="10" fill="#b91c1c">✗</text><rect x="511" y="203" width="17.5" height="17.5" rx="2" fill="#ef4444" fill-opacity="0.34" stroke="#ef4444" stroke-opacity="0.4"/><text x="519.75" y="215.25" text-anchor="middle" font-size="10" fill="#b91c1c">✗</text><rect x="530" y="203" width="17.5" height="17.5" rx="2" fill="var(--positive,#16a34a)" fill-opacity="0.22" stroke="var(--positive,#16a34a)" stroke-opacity="0.4"/><rect x="549" y="203" width="17.5" height="17.5" rx="2" fill="var(--positive,#16a34a)" fill-opacity="0.22" stroke="var(--positive,#16a34a)" stroke-opacity="0.4"/><text x="486" y="184" text-anchor="middle" font-size="9" fill="var(--text-tertiary,#9ca3af)" transform="rotate(-90 486 184)">s_m →</text><text x="530" y="233" text-anchor="middle" font-size="9" fill="var(--text-tertiary,#9ca3af)">tg →</text><rect x="722" y="146" width="17.5" height="17.5" rx="2" fill="var(--positive,#16a34a)" fill-opacity="0.22" stroke="var(--positive,#16a34a)" stroke-opacity="0.4"/><rect x="741" y="146" width="17.5" height="17.5" rx="2" fill="var(--positive,#16a34a)" fill-opacity="0.22" stroke="var(--positive,#16a34a)" stroke-opacity="0.4"/><rect x="760" y="146" width="17.5" height="17.5" rx="2" fill="var(--positive,#16a34a)" fill-opacity="0.22" stroke="var(--positive,#16a34a)" stroke-opacity="0.4"/><rect x="779" y="146" width="17.5" height="17.5" rx="2" fill="var(--positive,#16a34a)" fill-opacity="0.22" stroke="var(--positive,#16a34a)" stroke-opacity="0.4"/><rect x="722" y="165" width="17.5" height="17.5" rx="2" fill="var(--positive,#16a34a)" fill-opacity="0.22" stroke="var(--positive,#16a34a)" stroke-opacity="0.4"/><rect x="741" y="165" width="17.5" height="17.5" rx="2" fill="var(--positive,#16a34a)" fill-opacity="0.22" stroke="var(--positive,#16a34a)" stroke-opacity="0.4"/><rect x="760" y="165" width="17.5" height="17.5" rx="2" fill="var(--positive,#16a34a)" fill-opacity="0.22" stroke="var(--positive,#16a34a)" stroke-opacity="0.4"/><rect x="779" y="165" width="17.5" height="17.5" rx="2" fill="var(--positive,#16a34a)" fill-opacity="0.22" stroke="var(--positive,#16a34a)" stroke-opacity="0.4"/><rect x="722" y="184" width="17.5" height="17.5" rx="2" fill="#ef4444" fill-opacity="0.34" stroke="#ef4444" stroke-opacity="0.4"/><text x="730.75" y="196.25" text-anchor="middle" font-size="10" fill="#b91c1c">✗</text><rect x="741" y="184" width="17.5" height="17.5" rx="2" fill="#ef4444" fill-opacity="0.34" stroke="#ef4444" stroke-opacity="0.4"/><text x="749.75" y="196.25" text-anchor="middle" font-size="10" fill="#b91c1c">✗</text><rect x="760" y="184" width="17.5" height="17.5" rx="2" fill="var(--positive,#16a34a)" fill-opacity="0.22" stroke="var(--positive,#16a34a)" stroke-opacity="0.4"/><rect x="779" y="184" width="17.5" height="17.5" rx="2" fill="var(--positive,#16a34a)" fill-opacity="0.22" stroke="var(--positive,#16a34a)" stroke-opacity="0.4"/><rect x="722" y="203" width="17.5" height="17.5" rx="2" fill="#ef4444" fill-opacity="0.34" stroke="#ef4444" stroke-opacity="0.4"/><text x="730.75" y="215.25" text-anchor="middle" font-size="10" fill="#b91c1c">✗</text><rect x="741" y="203" width="17.5" height="17.5" rx="2" fill="#ef4444" fill-opacity="0.34" stroke="#ef4444" stroke-opacity="0.4"/><text x="749.75" y="215.25" text-anchor="middle" font-size="10" fill="#b91c1c">✗</text><rect x="760" y="203" width="17.5" height="17.5" rx="2" fill="var(--positive,#16a34a)" fill-opacity="0.22" stroke="var(--positive,#16a34a)" stroke-opacity="0.4"/><rect x="779" y="203" width="17.5" height="17.5" rx="2" fill="var(--positive,#16a34a)" fill-opacity="0.22" stroke="var(--positive,#16a34a)" stroke-opacity="0.4"/><text x="716" y="184" text-anchor="middle" font-size="9" fill="var(--text-tertiary,#9ca3af)" transform="rotate(-90 716 184)">s_m →</text><text x="760" y="233" text-anchor="middle" font-size="9" fill="var(--text-tertiary,#9ca3af)">tg →</text><text x="150" y="298" text-anchor="end" font-size="12.5" font-weight="600" fill="var(--text-primary,#1f2937)">A × target_gap</text><rect x="262" y="264" width="17.5" height="17.5" rx="2" fill="#ef4444" fill-opacity="0.34" stroke="#ef4444" stroke-opacity="0.4"/><text x="270.75" y="276.25" text-anchor="middle" font-size="10" fill="#b91c1c">✗</text><rect x="281" y="264" width="17.5" height="17.5" rx="2" fill="var(--positive,#16a34a)" fill-opacity="0.22" stroke="var(--positive,#16a34a)" stroke-opacity="0.4"/><rect x="300" y="264" width="17.5" height="17.5" rx="2" fill="var(--positive,#16a34a)" fill-opacity="0.22" stroke="var(--positive,#16a34a)" stroke-opacity="0.4"/><rect x="319" y="264" width="17.5" height="17.5" rx="2" fill="var(--positive,#16a34a)" fill-opacity="0.22" stroke="var(--positive,#16a34a)" stroke-opacity="0.4"/><rect x="262" y="283" width="17.5" height="17.5" rx="2" fill="#ef4444" fill-opacity="0.34" stroke="#ef4444" stroke-opacity="0.4"/><text x="270.75" y="295.25" text-anchor="middle" font-size="10" fill="#b91c1c">✗</text><rect x="281" y="283" width="17.5" height="17.5" rx="2" fill="#ef4444" fill-opacity="0.34" stroke="#ef4444" stroke-opacity="0.4"/><text x="289.75" y="295.25" text-anchor="middle" font-size="10" fill="#b91c1c">✗</text><rect x="300" y="283" width="17.5" height="17.5" rx="2" fill="var(--positive,#16a34a)" fill-opacity="0.22" stroke="var(--positive,#16a34a)" stroke-opacity="0.4"/><rect x="319" y="283" width="17.5" height="17.5" rx="2" fill="var(--positive,#16a34a)" fill-opacity="0.22" stroke="var(--positive,#16a34a)" stroke-opacity="0.4"/><rect x="262" y="302" width="17.5" height="17.5" rx="2" fill="#ef4444" fill-opacity="0.34" stroke="#ef4444" stroke-opacity="0.4"/><text x="270.75" y="314.25" text-anchor="middle" font-size="10" fill="#b91c1c">✗</text><rect x="281" y="302" width="17.5" height="17.5" rx="2" fill="var(--positive,#16a34a)" fill-opacity="0.22" stroke="var(--positive,#16a34a)" stroke-opacity="0.4"/><rect x="300" y="302" width="17.5" height="17.5" rx="2" fill="var(--positive,#16a34a)" fill-opacity="0.22" stroke="var(--positive,#16a34a)" stroke-opacity="0.4"/><rect x="319" y="302" width="17.5" height="17.5" rx="2" fill="var(--positive,#16a34a)" fill-opacity="0.22" stroke="var(--positive,#16a34a)" stroke-opacity="0.4"/><rect x="262" y="321" width="17.5" height="17.5" rx="2" fill="#ef4444" fill-opacity="0.34" stroke="#ef4444" stroke-opacity="0.4"/><text x="270.75" y="333.25" text-anchor="middle" font-size="10" fill="#b91c1c">✗</text><rect x="281" y="321" width="17.5" height="17.5" rx="2" fill="#ef4444" fill-opacity="0.34" stroke="#ef4444" stroke-opacity="0.4"/><text x="289.75" y="333.25" text-anchor="middle" font-size="10" fill="#b91c1c">✗</text><rect x="300" y="321" width="17.5" height="17.5" rx="2" fill="var(--positive,#16a34a)" fill-opacity="0.22" stroke="var(--positive,#16a34a)" stroke-opacity="0.4"/><rect x="319" y="321" width="17.5" height="17.5" rx="2" fill="var(--positive,#16a34a)" fill-opacity="0.22" stroke="var(--positive,#16a34a)" stroke-opacity="0.4"/><text x="256" y="302" text-anchor="middle" font-size="9" fill="var(--text-tertiary,#9ca3af)" transform="rotate(-90 256 302)">A →</text><text x="300" y="351" text-anchor="middle" font-size="9" fill="var(--text-tertiary,#9ca3af)">tg →</text><rect x="492" y="264" width="17.5" height="17.5" rx="2" fill="#ef4444" fill-opacity="0.34" stroke="#ef4444" stroke-opacity="0.4"/><text x="500.75" y="276.25" text-anchor="middle" font-size="10" fill="#b91c1c">✗</text><rect x="511" y="264" width="17.5" height="17.5" rx="2" fill="var(--positive,#16a34a)" fill-opacity="0.22" stroke="var(--positive,#16a34a)" stroke-opacity="0.4"/><rect x="530" y="264" width="17.5" height="17.5" rx="2" fill="var(--positive,#16a34a)" fill-opacity="0.22" stroke="var(--positive,#16a34a)" stroke-opacity="0.4"/><rect x="549" y="264" width="17.5" height="17.5" rx="2" fill="var(--positive,#16a34a)" fill-opacity="0.22" stroke="var(--positive,#16a34a)" stroke-opacity="0.4"/><rect x="492" y="283" width="17.5" height="17.5" rx="2" fill="#ef4444" fill-opacity="0.34" stroke="#ef4444" stroke-opacity="0.4"/><text x="500.75" y="295.25" text-anchor="middle" font-size="10" fill="#b91c1c">✗</text><rect x="511" y="283" width="17.5" height="17.5" rx="2" fill="var(--positive,#16a34a)" fill-opacity="0.22" stroke="var(--positive,#16a34a)" stroke-opacity="0.4"/><rect x="530" y="283" width="17.5" height="17.5" rx="2" fill="var(--positive,#16a34a)" fill-opacity="0.22" stroke="var(--positive,#16a34a)" stroke-opacity="0.4"/><rect x="549" y="283" width="17.5" height="17.5" rx="2" fill="var(--positive,#16a34a)" fill-opacity="0.22" stroke="var(--positive,#16a34a)" stroke-opacity="0.4"/><rect x="492" y="302" width="17.5" height="17.5" rx="2" fill="#ef4444" fill-opacity="0.34" stroke="#ef4444" stroke-opacity="0.4"/><text x="500.75" y="314.25" text-anchor="middle" font-size="10" fill="#b91c1c">✗</text><rect x="511" y="302" width="17.5" height="17.5" rx="2" fill="var(--positive,#16a34a)" fill-opacity="0.22" stroke="var(--positive,#16a34a)" stroke-opacity="0.4"/><rect x="530" y="302" width="17.5" height="17.5" rx="2" fill="var(--positive,#16a34a)" fill-opacity="0.22" stroke="var(--positive,#16a34a)" stroke-opacity="0.4"/><rect x="549" y="302" width="17.5" height="17.5" rx="2" fill="var(--positive,#16a34a)" fill-opacity="0.22" stroke="var(--positive,#16a34a)" stroke-opacity="0.4"/><rect x="492" y="321" width="17.5" height="17.5" rx="2" fill="#ef4444" fill-opacity="0.34" stroke="#ef4444" stroke-opacity="0.4"/><text x="500.75" y="333.25" text-anchor="middle" font-size="10" fill="#b91c1c">✗</text><rect x="511" y="321" width="17.5" height="17.5" rx="2" fill="#ef4444" fill-opacity="0.34" stroke="#ef4444" stroke-opacity="0.4"/><text x="519.75" y="333.25" text-anchor="middle" font-size="10" fill="#b91c1c">✗</text><rect x="530" y="321" width="17.5" height="17.5" rx="2" fill="var(--positive,#16a34a)" fill-opacity="0.22" stroke="var(--positive,#16a34a)" stroke-opacity="0.4"/><rect x="549" y="321" width="17.5" height="17.5" rx="2" fill="var(--positive,#16a34a)" fill-opacity="0.22" stroke="var(--positive,#16a34a)" stroke-opacity="0.4"/><text x="486" y="302" text-anchor="middle" font-size="9" fill="var(--text-tertiary,#9ca3af)" transform="rotate(-90 486 302)">A →</text><text x="530" y="351" text-anchor="middle" font-size="9" fill="var(--text-tertiary,#9ca3af)">tg →</text><rect x="722" y="264" width="17.5" height="17.5" rx="2" fill="#ef4444" fill-opacity="0.34" stroke="#ef4444" stroke-opacity="0.4"/><text x="730.75" y="276.25" text-anchor="middle" font-size="10" fill="#b91c1c">✗</text><rect x="741" y="264" width="17.5" height="17.5" rx="2" fill="var(--positive,#16a34a)" fill-opacity="0.22" stroke="var(--positive,#16a34a)" stroke-opacity="0.4"/><rect x="760" y="264" width="17.5" height="17.5" rx="2" fill="var(--positive,#16a34a)" fill-opacity="0.22" stroke="var(--positive,#16a34a)" stroke-opacity="0.4"/><rect x="779" y="264" width="17.5" height="17.5" rx="2" fill="var(--positive,#16a34a)" fill-opacity="0.22" stroke="var(--positive,#16a34a)" stroke-opacity="0.4"/><rect x="722" y="283" width="17.5" height="17.5" rx="2" fill="#ef4444" fill-opacity="0.34" stroke="#ef4444" stroke-opacity="0.4"/><text x="730.75" y="295.25" text-anchor="middle" font-size="10" fill="#b91c1c">✗</text><rect x="741" y="283" width="17.5" height="17.5" rx="2" fill="var(--positive,#16a34a)" fill-opacity="0.22" stroke="var(--positive,#16a34a)" stroke-opacity="0.4"/><rect x="760" y="283" width="17.5" height="17.5" rx="2" fill="var(--positive,#16a34a)" fill-opacity="0.22" stroke="var(--positive,#16a34a)" stroke-opacity="0.4"/><rect x="779" y="283" width="17.5" height="17.5" rx="2" fill="var(--positive,#16a34a)" fill-opacity="0.22" stroke="var(--positive,#16a34a)" stroke-opacity="0.4"/><rect x="722" y="302" width="17.5" height="17.5" rx="2" fill="#ef4444" fill-opacity="0.34" stroke="#ef4444" stroke-opacity="0.4"/><text x="730.75" y="314.25" text-anchor="middle" font-size="10" fill="#b91c1c">✗</text><rect x="741" y="302" width="17.5" height="17.5" rx="2" fill="var(--positive,#16a34a)" fill-opacity="0.22" stroke="var(--positive,#16a34a)" stroke-opacity="0.4"/><rect x="760" y="302" width="17.5" height="17.5" rx="2" fill="var(--positive,#16a34a)" fill-opacity="0.22" stroke="var(--positive,#16a34a)" stroke-opacity="0.4"/><rect x="779" y="302" width="17.5" height="17.5" rx="2" fill="var(--positive,#16a34a)" fill-opacity="0.22" stroke="var(--positive,#16a34a)" stroke-opacity="0.4"/><rect x="722" y="321" width="17.5" height="17.5" rx="2" fill="#ef4444" fill-opacity="0.34" stroke="#ef4444" stroke-opacity="0.4"/><text x="730.75" y="333.25" text-anchor="middle" font-size="10" fill="#b91c1c">✗</text><rect x="741" y="321" width="17.5" height="17.5" rx="2" fill="#ef4444" fill-opacity="0.34" stroke="#ef4444" stroke-opacity="0.4"/><text x="749.75" y="333.25" text-anchor="middle" font-size="10" fill="#b91c1c">✗</text><rect x="760" y="321" width="17.5" height="17.5" rx="2" fill="var(--positive,#16a34a)" fill-opacity="0.22" stroke="var(--positive,#16a34a)" stroke-opacity="0.4"/><rect x="779" y="321" width="17.5" height="17.5" rx="2" fill="var(--positive,#16a34a)" fill-opacity="0.22" stroke="var(--positive,#16a34a)" stroke-opacity="0.4"/><text x="716" y="302" text-anchor="middle" font-size="9" fill="var(--text-tertiary,#9ca3af)" transform="rotate(-90 716 302)">A →</text><text x="760" y="351" text-anchor="middle" font-size="9" fill="var(--text-tertiary,#9ca3af)">tg →</text><rect x="14" y="366" width="932" height="244" rx="8" fill="var(--accent,#2563eb)" fill-opacity="0.05" stroke="var(--accent,#2563eb)" stroke-opacity="0.35"/><text x="26" y="382" font-size="12" font-weight="700" fill="var(--accent,#2563eb)">Vocab-dependent — the window axis (Gemmas agree, CPM5 diverges)</text><text x="150" y="438" text-anchor="end" font-size="12.5" font-weight="600" fill="var(--text-primary,#1f2937)">s_m × W</text><rect x="262" y="404" width="17.5" height="17.5" rx="2" fill="#ef4444" fill-opacity="0.34" stroke="#ef4444" stroke-opacity="0.4"/><text x="270.75" y="416.25" text-anchor="middle" font-size="10" fill="#b91c1c">✗</text><rect x="281" y="404" width="17.5" height="17.5" rx="2" fill="var(--positive,#16a34a)" fill-opacity="0.22" stroke="var(--positive,#16a34a)" stroke-opacity="0.4"/><rect x="300" y="404" width="17.5" height="17.5" rx="2" fill="var(--positive,#16a34a)" fill-opacity="0.22" stroke="var(--positive,#16a34a)" stroke-opacity="0.4"/><rect x="319" y="404" width="17.5" height="17.5" rx="2" fill="var(--positive,#16a34a)" fill-opacity="0.22" stroke="var(--positive,#16a34a)" stroke-opacity="0.4"/><rect x="262" y="423" width="17.5" height="17.5" rx="2" fill="#ef4444" fill-opacity="0.34" stroke="#ef4444" stroke-opacity="0.4"/><text x="270.75" y="435.25" text-anchor="middle" font-size="10" fill="#b91c1c">✗</text><rect x="281" y="423" width="17.5" height="17.5" rx="2" fill="var(--positive,#16a34a)" fill-opacity="0.22" stroke="var(--positive,#16a34a)" stroke-opacity="0.4"/><rect x="300" y="423" width="17.5" height="17.5" rx="2" fill="var(--positive,#16a34a)" fill-opacity="0.22" stroke="var(--positive,#16a34a)" stroke-opacity="0.4"/><rect x="319" y="423" width="17.5" height="17.5" rx="2" fill="var(--positive,#16a34a)" fill-opacity="0.22" stroke="var(--positive,#16a34a)" stroke-opacity="0.4"/><rect x="262" y="442" width="17.5" height="17.5" rx="2" fill="#ef4444" fill-opacity="0.34" stroke="#ef4444" stroke-opacity="0.4"/><text x="270.75" y="454.25" text-anchor="middle" font-size="10" fill="#b91c1c">✗</text><rect x="281" y="442" width="17.5" height="17.5" rx="2" fill="#ef4444" fill-opacity="0.34" stroke="#ef4444" stroke-opacity="0.4"/><text x="289.75" y="454.25" text-anchor="middle" font-size="10" fill="#b91c1c">✗</text><rect x="300" y="442" width="17.5" height="17.5" rx="2" fill="var(--positive,#16a34a)" fill-opacity="0.22" stroke="var(--positive,#16a34a)" stroke-opacity="0.4"/><rect x="319" y="442" width="17.5" height="17.5" rx="2" fill="var(--positive,#16a34a)" fill-opacity="0.22" stroke="var(--positive,#16a34a)" stroke-opacity="0.4"/><rect x="262" y="461" width="17.5" height="17.5" rx="2" fill="#ef4444" fill-opacity="0.34" stroke="#ef4444" stroke-opacity="0.4"/><text x="270.75" y="473.25" text-anchor="middle" font-size="10" fill="#b91c1c">✗</text><rect x="281" y="461" width="17.5" height="17.5" rx="2" fill="#ef4444" fill-opacity="0.34" stroke="#ef4444" stroke-opacity="0.4"/><text x="289.75" y="473.25" text-anchor="middle" font-size="10" fill="#b91c1c">✗</text><rect x="300" y="461" width="17.5" height="17.5" rx="2" fill="var(--positive,#16a34a)" fill-opacity="0.22" stroke="var(--positive,#16a34a)" stroke-opacity="0.4"/><rect x="319" y="461" width="17.5" height="17.5" rx="2" fill="var(--positive,#16a34a)" fill-opacity="0.22" stroke="var(--positive,#16a34a)" stroke-opacity="0.4"/><text x="256" y="442" text-anchor="middle" font-size="9" fill="var(--text-tertiary,#9ca3af)" transform="rotate(-90 256 442)">s_m →</text><text x="300" y="491" text-anchor="middle" font-size="9" fill="var(--text-tertiary,#9ca3af)">W →</text><rect x="492" y="404" width="17.5" height="17.5" rx="2" fill="#ef4444" fill-opacity="0.34" stroke="#ef4444" stroke-opacity="0.4"/><text x="500.75" y="416.25" text-anchor="middle" font-size="10" fill="#b91c1c">✗</text><rect x="511" y="404" width="17.5" height="17.5" rx="2" fill="var(--positive,#16a34a)" fill-opacity="0.22" stroke="var(--positive,#16a34a)" stroke-opacity="0.4"/><rect x="530" y="404" width="17.5" height="17.5" rx="2" fill="var(--positive,#16a34a)" fill-opacity="0.22" stroke="var(--positive,#16a34a)" stroke-opacity="0.4"/><rect x="549" y="404" width="17.5" height="17.5" rx="2" fill="var(--positive,#16a34a)" fill-opacity="0.22" stroke="var(--positive,#16a34a)" stroke-opacity="0.4"/><rect x="492" y="423" width="17.5" height="17.5" rx="2" fill="#ef4444" fill-opacity="0.34" stroke="#ef4444" stroke-opacity="0.4"/><text x="500.75" y="435.25" text-anchor="middle" font-size="10" fill="#b91c1c">✗</text><rect x="511" y="423" width="17.5" height="17.5" rx="2" fill="var(--positive,#16a34a)" fill-opacity="0.22" stroke="var(--positive,#16a34a)" stroke-opacity="0.4"/><rect x="530" y="423" width="17.5" height="17.5" rx="2" fill="var(--positive,#16a34a)" fill-opacity="0.22" stroke="var(--positive,#16a34a)" stroke-opacity="0.4"/><rect x="549" y="423" width="17.5" height="17.5" rx="2" fill="var(--positive,#16a34a)" fill-opacity="0.22" stroke="var(--positive,#16a34a)" stroke-opacity="0.4"/><rect x="492" y="442" width="17.5" height="17.5" rx="2" fill="#ef4444" fill-opacity="0.34" stroke="#ef4444" stroke-opacity="0.4"/><text x="500.75" y="454.25" text-anchor="middle" font-size="10" fill="#b91c1c">✗</text><rect x="511" y="442" width="17.5" height="17.5" rx="2" fill="#ef4444" fill-opacity="0.34" stroke="#ef4444" stroke-opacity="0.4"/><text x="519.75" y="454.25" text-anchor="middle" font-size="10" fill="#b91c1c">✗</text><rect x="530" y="442" width="17.5" height="17.5" rx="2" fill="var(--positive,#16a34a)" fill-opacity="0.22" stroke="var(--positive,#16a34a)" stroke-opacity="0.4"/><rect x="549" y="442" width="17.5" height="17.5" rx="2" fill="var(--positive,#16a34a)" fill-opacity="0.22" stroke="var(--positive,#16a34a)" stroke-opacity="0.4"/><rect x="492" y="461" width="17.5" height="17.5" rx="2" fill="#ef4444" fill-opacity="0.34" stroke="#ef4444" stroke-opacity="0.4"/><text x="500.75" y="473.25" text-anchor="middle" font-size="10" fill="#b91c1c">✗</text><rect x="511" y="461" width="17.5" height="17.5" rx="2" fill="#ef4444" fill-opacity="0.34" stroke="#ef4444" stroke-opacity="0.4"/><text x="519.75" y="473.25" text-anchor="middle" font-size="10" fill="#b91c1c">✗</text><rect x="530" y="461" width="17.5" height="17.5" rx="2" fill="var(--positive,#16a34a)" fill-opacity="0.22" stroke="var(--positive,#16a34a)" stroke-opacity="0.4"/><rect x="549" y="461" width="17.5" height="17.5" rx="2" fill="var(--positive,#16a34a)" fill-opacity="0.22" stroke="var(--positive,#16a34a)" stroke-opacity="0.4"/><text x="486" y="442" text-anchor="middle" font-size="9" fill="var(--text-tertiary,#9ca3af)" transform="rotate(-90 486 442)">s_m →</text><text x="530" y="491" text-anchor="middle" font-size="9" fill="var(--text-tertiary,#9ca3af)">W →</text><rect x="722" y="404" width="17.5" height="17.5" rx="2" fill="var(--positive,#16a34a)" fill-opacity="0.22" stroke="var(--positive,#16a34a)" stroke-opacity="0.4"/><rect x="741" y="404" width="17.5" height="17.5" rx="2" fill="var(--positive,#16a34a)" fill-opacity="0.22" stroke="var(--positive,#16a34a)" stroke-opacity="0.4"/><rect x="760" y="404" width="17.5" height="17.5" rx="2" fill="var(--positive,#16a34a)" fill-opacity="0.22" stroke="var(--positive,#16a34a)" stroke-opacity="0.4"/><rect x="779" y="404" width="17.5" height="17.5" rx="2" fill="var(--positive,#16a34a)" fill-opacity="0.22" stroke="var(--positive,#16a34a)" stroke-opacity="0.4"/><rect x="722" y="423" width="17.5" height="17.5" rx="2" fill="var(--positive,#16a34a)" fill-opacity="0.22" stroke="var(--positive,#16a34a)" stroke-opacity="0.4"/><rect x="741" y="423" width="17.5" height="17.5" rx="2" fill="var(--positive,#16a34a)" fill-opacity="0.22" stroke="var(--positive,#16a34a)" stroke-opacity="0.4"/><rect x="760" y="423" width="17.5" height="17.5" rx="2" fill="var(--positive,#16a34a)" fill-opacity="0.22" stroke="var(--positive,#16a34a)" stroke-opacity="0.4"/><rect x="779" y="423" width="17.5" height="17.5" rx="2" fill="var(--positive,#16a34a)" fill-opacity="0.22" stroke="var(--positive,#16a34a)" stroke-opacity="0.4"/><rect x="722" y="442" width="17.5" height="17.5" rx="2" fill="var(--positive,#16a34a)" fill-opacity="0.22" stroke="var(--positive,#16a34a)" stroke-opacity="0.4"/><rect x="741" y="442" width="17.5" height="17.5" rx="2" fill="var(--positive,#16a34a)" fill-opacity="0.22" stroke="var(--positive,#16a34a)" stroke-opacity="0.4"/><rect x="760" y="442" width="17.5" height="17.5" rx="2" fill="var(--positive,#16a34a)" fill-opacity="0.22" stroke="var(--positive,#16a34a)" stroke-opacity="0.4"/><rect x="779" y="442" width="17.5" height="17.5" rx="2" fill="var(--positive,#16a34a)" fill-opacity="0.22" stroke="var(--positive,#16a34a)" stroke-opacity="0.4"/><rect x="722" y="461" width="17.5" height="17.5" rx="2" fill="var(--positive,#16a34a)" fill-opacity="0.22" stroke="var(--positive,#16a34a)" stroke-opacity="0.4"/><rect x="741" y="461" width="17.5" height="17.5" rx="2" fill="var(--positive,#16a34a)" fill-opacity="0.22" stroke="var(--positive,#16a34a)" stroke-opacity="0.4"/><rect x="760" y="461" width="17.5" height="17.5" rx="2" fill="var(--positive,#16a34a)" fill-opacity="0.22" stroke="var(--positive,#16a34a)" stroke-opacity="0.4"/><rect x="779" y="461" width="17.5" height="17.5" rx="2" fill="var(--positive,#16a34a)" fill-opacity="0.22" stroke="var(--positive,#16a34a)" stroke-opacity="0.4"/><text x="716" y="442" text-anchor="middle" font-size="9" fill="var(--text-tertiary,#9ca3af)" transform="rotate(-90 716 442)">s_m →</text><text x="760" y="491" text-anchor="middle" font-size="9" fill="var(--text-tertiary,#9ca3af)">W →</text><text x="150" y="556" text-anchor="end" font-size="12.5" font-weight="600" fill="var(--text-primary,#1f2937)">A × W</text><rect x="262" y="522" width="17.5" height="17.5" rx="2" fill="#ef4444" fill-opacity="0.34" stroke="#ef4444" stroke-opacity="0.4"/><text x="270.75" y="534.25" text-anchor="middle" font-size="10" fill="#b91c1c">✗</text><rect x="281" y="522" width="17.5" height="17.5" rx="2" fill="var(--positive,#16a34a)" fill-opacity="0.22" stroke="var(--positive,#16a34a)" stroke-opacity="0.4"/><rect x="300" y="522" width="17.5" height="17.5" rx="2" fill="var(--positive,#16a34a)" fill-opacity="0.22" stroke="var(--positive,#16a34a)" stroke-opacity="0.4"/><rect x="319" y="522" width="17.5" height="17.5" rx="2" fill="var(--positive,#16a34a)" fill-opacity="0.22" stroke="var(--positive,#16a34a)" stroke-opacity="0.4"/><rect x="262" y="541" width="17.5" height="17.5" rx="2" fill="#ef4444" fill-opacity="0.34" stroke="#ef4444" stroke-opacity="0.4"/><text x="270.75" y="553.25" text-anchor="middle" font-size="10" fill="#b91c1c">✗</text><rect x="281" y="541" width="17.5" height="17.5" rx="2" fill="var(--positive,#16a34a)" fill-opacity="0.22" stroke="var(--positive,#16a34a)" stroke-opacity="0.4"/><rect x="300" y="541" width="17.5" height="17.5" rx="2" fill="var(--positive,#16a34a)" fill-opacity="0.22" stroke="var(--positive,#16a34a)" stroke-opacity="0.4"/><rect x="319" y="541" width="17.5" height="17.5" rx="2" fill="var(--positive,#16a34a)" fill-opacity="0.22" stroke="var(--positive,#16a34a)" stroke-opacity="0.4"/><rect x="262" y="560" width="17.5" height="17.5" rx="2" fill="#ef4444" fill-opacity="0.34" stroke="#ef4444" stroke-opacity="0.4"/><text x="270.75" y="572.25" text-anchor="middle" font-size="10" fill="#b91c1c">✗</text><rect x="281" y="560" width="17.5" height="17.5" rx="2" fill="var(--positive,#16a34a)" fill-opacity="0.22" stroke="var(--positive,#16a34a)" stroke-opacity="0.4"/><rect x="300" y="560" width="17.5" height="17.5" rx="2" fill="var(--positive,#16a34a)" fill-opacity="0.22" stroke="var(--positive,#16a34a)" stroke-opacity="0.4"/><rect x="319" y="560" width="17.5" height="17.5" rx="2" fill="var(--positive,#16a34a)" fill-opacity="0.22" stroke="var(--positive,#16a34a)" stroke-opacity="0.4"/><rect x="262" y="579" width="17.5" height="17.5" rx="2" fill="#ef4444" fill-opacity="0.34" stroke="#ef4444" stroke-opacity="0.4"/><text x="270.75" y="591.25" text-anchor="middle" font-size="10" fill="#b91c1c">✗</text><rect x="281" y="579" width="17.5" height="17.5" rx="2" fill="#ef4444" fill-opacity="0.34" stroke="#ef4444" stroke-opacity="0.4"/><text x="289.75" y="591.25" text-anchor="middle" font-size="10" fill="#b91c1c">✗</text><rect x="300" y="579" width="17.5" height="17.5" rx="2" fill="var(--positive,#16a34a)" fill-opacity="0.22" stroke="var(--positive,#16a34a)" stroke-opacity="0.4"/><rect x="319" y="579" width="17.5" height="17.5" rx="2" fill="var(--positive,#16a34a)" fill-opacity="0.22" stroke="var(--positive,#16a34a)" stroke-opacity="0.4"/><text x="256" y="560" text-anchor="middle" font-size="9" fill="var(--text-tertiary,#9ca3af)" transform="rotate(-90 256 560)">A →</text><text x="300" y="609" text-anchor="middle" font-size="9" fill="var(--text-tertiary,#9ca3af)">W →</text><rect x="492" y="522" width="17.5" height="17.5" rx="2" fill="#ef4444" fill-opacity="0.34" stroke="#ef4444" stroke-opacity="0.4"/><text x="500.75" y="534.25" text-anchor="middle" font-size="10" fill="#b91c1c">✗</text><rect x="511" y="522" width="17.5" height="17.5" rx="2" fill="var(--positive,#16a34a)" fill-opacity="0.22" stroke="var(--positive,#16a34a)" stroke-opacity="0.4"/><rect x="530" y="522" width="17.5" height="17.5" rx="2" fill="var(--positive,#16a34a)" fill-opacity="0.22" stroke="var(--positive,#16a34a)" stroke-opacity="0.4"/><rect x="549" y="522" width="17.5" height="17.5" rx="2" fill="var(--positive,#16a34a)" fill-opacity="0.22" stroke="var(--positive,#16a34a)" stroke-opacity="0.4"/><rect x="492" y="541" width="17.5" height="17.5" rx="2" fill="#ef4444" fill-opacity="0.34" stroke="#ef4444" stroke-opacity="0.4"/><text x="500.75" y="553.25" text-anchor="middle" font-size="10" fill="#b91c1c">✗</text><rect x="511" y="541" width="17.5" height="17.5" rx="2" fill="var(--positive,#16a34a)" fill-opacity="0.22" stroke="var(--positive,#16a34a)" stroke-opacity="0.4"/><rect x="530" y="541" width="17.5" height="17.5" rx="2" fill="var(--positive,#16a34a)" fill-opacity="0.22" stroke="var(--positive,#16a34a)" stroke-opacity="0.4"/><rect x="549" y="541" width="17.5" height="17.5" rx="2" fill="var(--positive,#16a34a)" fill-opacity="0.22" stroke="var(--positive,#16a34a)" stroke-opacity="0.4"/><rect x="492" y="560" width="17.5" height="17.5" rx="2" fill="#ef4444" fill-opacity="0.34" stroke="#ef4444" stroke-opacity="0.4"/><text x="500.75" y="572.25" text-anchor="middle" font-size="10" fill="#b91c1c">✗</text><rect x="511" y="560" width="17.5" height="17.5" rx="2" fill="#ef4444" fill-opacity="0.34" stroke="#ef4444" stroke-opacity="0.4"/><text x="519.75" y="572.25" text-anchor="middle" font-size="10" fill="#b91c1c">✗</text><rect x="530" y="560" width="17.5" height="17.5" rx="2" fill="var(--positive,#16a34a)" fill-opacity="0.22" stroke="var(--positive,#16a34a)" stroke-opacity="0.4"/><rect x="549" y="560" width="17.5" height="17.5" rx="2" fill="var(--positive,#16a34a)" fill-opacity="0.22" stroke="var(--positive,#16a34a)" stroke-opacity="0.4"/><rect x="492" y="579" width="17.5" height="17.5" rx="2" fill="#ef4444" fill-opacity="0.34" stroke="#ef4444" stroke-opacity="0.4"/><text x="500.75" y="591.25" text-anchor="middle" font-size="10" fill="#b91c1c">✗</text><rect x="511" y="579" width="17.5" height="17.5" rx="2" fill="#ef4444" fill-opacity="0.34" stroke="#ef4444" stroke-opacity="0.4"/><text x="519.75" y="591.25" text-anchor="middle" font-size="10" fill="#b91c1c">✗</text><rect x="530" y="579" width="17.5" height="17.5" rx="2" fill="var(--positive,#16a34a)" fill-opacity="0.22" stroke="var(--positive,#16a34a)" stroke-opacity="0.4"/><rect x="549" y="579" width="17.5" height="17.5" rx="2" fill="#ef4444" fill-opacity="0.34" stroke="#ef4444" stroke-opacity="0.4"/><text x="557.75" y="591.25" text-anchor="middle" font-size="10" fill="#b91c1c">✗</text><text x="486" y="560" text-anchor="middle" font-size="9" fill="var(--text-tertiary,#9ca3af)" transform="rotate(-90 486 560)">A →</text><text x="530" y="609" text-anchor="middle" font-size="9" fill="var(--text-tertiary,#9ca3af)">W →</text><rect x="722" y="522" width="17.5" height="17.5" rx="2" fill="var(--positive,#16a34a)" fill-opacity="0.22" stroke="var(--positive,#16a34a)" stroke-opacity="0.4"/><rect x="741" y="522" width="17.5" height="17.5" rx="2" fill="var(--positive,#16a34a)" fill-opacity="0.22" stroke="var(--positive,#16a34a)" stroke-opacity="0.4"/><rect x="760" y="522" width="17.5" height="17.5" rx="2" fill="var(--positive,#16a34a)" fill-opacity="0.22" stroke="var(--positive,#16a34a)" stroke-opacity="0.4"/><rect x="779" y="522" width="17.5" height="17.5" rx="2" fill="var(--positive,#16a34a)" fill-opacity="0.22" stroke="var(--positive,#16a34a)" stroke-opacity="0.4"/><rect x="722" y="541" width="17.5" height="17.5" rx="2" fill="var(--positive,#16a34a)" fill-opacity="0.22" stroke="var(--positive,#16a34a)" stroke-opacity="0.4"/><rect x="741" y="541" width="17.5" height="17.5" rx="2" fill="var(--positive,#16a34a)" fill-opacity="0.22" stroke="var(--positive,#16a34a)" stroke-opacity="0.4"/><rect x="760" y="541" width="17.5" height="17.5" rx="2" fill="var(--positive,#16a34a)" fill-opacity="0.22" stroke="var(--positive,#16a34a)" stroke-opacity="0.4"/><rect x="779" y="541" width="17.5" height="17.5" rx="2" fill="var(--positive,#16a34a)" fill-opacity="0.22" stroke="var(--positive,#16a34a)" stroke-opacity="0.4"/><rect x="722" y="560" width="17.5" height="17.5" rx="2" fill="#ef4444" fill-opacity="0.34" stroke="#ef4444" stroke-opacity="0.4"/><text x="730.75" y="572.25" text-anchor="middle" font-size="10" fill="#b91c1c">✗</text><rect x="741" y="560" width="17.5" height="17.5" rx="2" fill="var(--positive,#16a34a)" fill-opacity="0.22" stroke="var(--positive,#16a34a)" stroke-opacity="0.4"/><rect x="760" y="560" width="17.5" height="17.5" rx="2" fill="var(--positive,#16a34a)" fill-opacity="0.22" stroke="var(--positive,#16a34a)" stroke-opacity="0.4"/><rect x="779" y="560" width="17.5" height="17.5" rx="2" fill="#ef4444" fill-opacity="0.34" stroke="#ef4444" stroke-opacity="0.4"/><text x="787.75" y="572.25" text-anchor="middle" font-size="10" fill="#b91c1c">✗</text><rect x="722" y="579" width="17.5" height="17.5" rx="2" fill="#ef4444" fill-opacity="0.34" stroke="#ef4444" stroke-opacity="0.4"/><text x="730.75" y="591.25" text-anchor="middle" font-size="10" fill="#b91c1c">✗</text><rect x="741" y="579" width="17.5" height="17.5" rx="2" fill="#ef4444" fill-opacity="0.34" stroke="#ef4444" stroke-opacity="0.4"/><text x="749.75" y="591.25" text-anchor="middle" font-size="10" fill="#b91c1c">✗</text><rect x="760" y="579" width="17.5" height="17.5" rx="2" fill="var(--positive,#16a34a)" fill-opacity="0.22" stroke="var(--positive,#16a34a)" stroke-opacity="0.4"/><rect x="779" y="579" width="17.5" height="17.5" rx="2" fill="#ef4444" fill-opacity="0.34" stroke="#ef4444" stroke-opacity="0.4"/><text x="787.75" y="591.25" text-anchor="middle" font-size="10" fill="#b91c1c">✗</text><text x="716" y="560" text-anchor="middle" font-size="9" fill="var(--text-tertiary,#9ca3af)" transform="rotate(-90 716 560)">A →</text><text x="760" y="609" text-anchor="middle" font-size="9" fill="var(--text-tertiary,#9ca3af)">W →</text><g transform="translate(26,644)"><rect x="0" y="-11" width="14" height="14" rx="2" fill="var(--positive,#16a34a)" fill-opacity="0.22" stroke="var(--positive,#16a34a)" stroke-opacity="0.4"/><text x="20" y="0" font-size="11" fill="var(--text-secondary,#6b7280)">coherent</text><rect x="100" y="-11" width="14" height="14" rx="2" fill="#ef4444" fill-opacity="0.34" stroke="#ef4444" stroke-opacity="0.4"/><text x="120" y="0" font-size="11" fill="var(--text-secondary,#6b7280)">canary broke</text><text x="240" y="0" font-size="11" font-style="italic" fill="var(--text-tertiary,#9ca3af)">Same red pattern across columns = the curve, not the model.</text></g></svg>
