<svg viewBox="0 0 860 536" xmlns="http://www.w3.org/2000/svg" role="img" aria-labelledby="t d" font-family="ui-sans-serif,system-ui,sans-serif"><title id="t">HLG edge texture</title><desc id="d">Break-rate across the four transition zooms at K=20: the gate cliffs are soft probabilistic ramps, the L_W low wall is a hard threshold at gamma 0, the high wall is barely there.</desc><text x="430" y="26" text-anchor="middle" font-size="17" font-weight="700" fill="var(--text-primary,#1f2937)">Edge texture (K=20) — break-rate, not magnitude, is what slides</text><text x="46" y="58" font-size="14" font-weight="700" fill="var(--text-primary,#1f2937)">target_gap ramp</text><text x="414" y="58" text-anchor="end" font-size="11.5" font-weight="700" fill="#d97706">soft · probabilistic</text><line x1="46" y1="240" x2="414" y2="240" stroke="var(--grid,#eef2f7)"/><text x="40" y="243" text-anchor="end" font-size="9" fill="var(--text-tertiary,#9ca3af)">0%</text><line x1="46" y1="200.5" x2="414" y2="200.5" stroke="var(--grid,#eef2f7)"/><text x="40" y="203.5" text-anchor="end" font-size="9" fill="var(--text-tertiary,#9ca3af)">25%</text><line x1="46" y1="161" x2="414" y2="161" stroke="var(--grid,#eef2f7)"/><text x="40" y="164" text-anchor="end" font-size="9" fill="var(--text-tertiary,#9ca3af)">50%</text><line x1="46" y1="121.5" x2="414" y2="121.5" stroke="var(--grid,#eef2f7)"/><text x="40" y="124.5" text-anchor="end" font-size="9" fill="var(--text-tertiary,#9ca3af)">75%</text><line x1="46" y1="82" x2="414" y2="82" stroke="var(--grid,#eef2f7)"/><text x="40" y="85" text-anchor="end" font-size="9" fill="var(--text-tertiary,#9ca3af)">100%</text><rect x="35.77777777777778" y="202.07999999999998" width="20.444444444444443" height="37.92" fill="var(--text-tertiary,#9ca3af)" opacity="0.28" rx="1"/><rect x="81.77777777777777" y="205.24" width="20.444444444444443" height="34.76" fill="var(--text-tertiary,#9ca3af)" opacity="0.28" rx="1"/><rect x="127.77777777777777" y="208.4" width="20.444444444444443" height="31.6" fill="var(--text-tertiary,#9ca3af)" opacity="0.28" rx="1"/><rect x="173.77777777777777" y="217.88" width="20.444444444444443" height="22.12" fill="var(--text-tertiary,#9ca3af)" opacity="0.28" rx="1"/><rect x="219.77777777777777" y="228.94" width="20.444444444444443" height="11.06" fill="var(--text-tertiary,#9ca3af)" opacity="0.28" rx="1"/><rect x="265.77777777777777" y="230.52" width="20.444444444444443" height="9.48" fill="var(--text-tertiary,#9ca3af)" opacity="0.28" rx="1"/><rect x="311.77777777777777" y="240" width="20.444444444444443" height="0" fill="var(--text-tertiary,#9ca3af)" opacity="0.28" rx="1"/><rect x="357.77777777777777" y="240" width="20.444444444444443" height="0" fill="var(--text-tertiary,#9ca3af)" opacity="0.28" rx="1"/><rect x="403.77777777777777" y="240" width="20.444444444444443" height="0" fill="var(--text-tertiary,#9ca3af)" opacity="0.28" rx="1"/><path d="M46.0 82.0 L92.0 82.0 L138.0 82.0 L184.0 105.7 L230.0 129.4 L276.0 161.0 L322.0 224.2 L368.0 224.2 L414.0 216.3" fill="none" stroke="#d97706" stroke-width="2.5"/><circle cx="46" cy="82" r="3" fill="#d97706"/><circle cx="92" cy="82" r="3" fill="#d97706"/><circle cx="138" cy="82" r="3" fill="#d97706"/><circle cx="184" cy="105.7" r="3" fill="#d97706"/><circle cx="230" cy="129.4" r="3" fill="#d97706"/><circle cx="276" cy="161" r="3" fill="#d97706"/><circle cx="322" cy="224.20000000000002" r="3" fill="#d97706"/><circle cx="368" cy="224.20000000000002" r="3" fill="#d97706"/><circle cx="414" cy="216.29999999999998" r="3" fill="#d97706"/><text x="46" y="255" text-anchor="middle" font-size="9" fill="var(--text-secondary,#6b7280)">7</text><text x="138" y="255" text-anchor="middle" font-size="9" fill="var(--text-secondary,#6b7280)">8</text><text x="230" y="255" text-anchor="middle" font-size="9" fill="var(--text-secondary,#6b7280)">9</text><text x="322" y="255" text-anchor="middle" font-size="9" fill="var(--text-secondary,#6b7280)">10</text><text x="414" y="255" text-anchor="middle" font-size="9" fill="var(--text-secondary,#6b7280)">11</text><text x="230" y="271" text-anchor="middle" font-size="10.5" fill="var(--text-secondary,#6b7280)">target_gap →</text><text x="476" y="58" font-size="14" font-weight="700" fill="var(--text-primary,#1f2937)">W channel-close (A=100)</text><text x="844" y="58" text-anchor="end" font-size="11.5" font-weight="700" fill="#d97706">soft · steeper</text><line x1="476" y1="240" x2="844" y2="240" stroke="var(--grid,#eef2f7)"/><text x="470" y="243" text-anchor="end" font-size="9" fill="var(--text-tertiary,#9ca3af)">0%</text><line x1="476" y1="200.5" x2="844" y2="200.5" stroke="var(--grid,#eef2f7)"/><text x="470" y="203.5" text-anchor="end" font-size="9" fill="var(--text-tertiary,#9ca3af)">25%</text><line x1="476" y1="161" x2="844" y2="161" stroke="var(--grid,#eef2f7)"/><text x="470" y="164" text-anchor="end" font-size="9" fill="var(--text-tertiary,#9ca3af)">50%</text><line x1="476" y1="121.5" x2="844" y2="121.5" stroke="var(--grid,#eef2f7)"/><text x="470" y="124.5" text-anchor="end" font-size="9" fill="var(--text-tertiary,#9ca3af)">75%</text><line x1="476" y1="82" x2="844" y2="82" stroke="var(--grid,#eef2f7)"/><text x="470" y="85" text-anchor="end" font-size="9" fill="var(--text-tertiary,#9ca3af)">100%</text><rect x="465.77777777777777" y="214.72" width="20.444444444444443" height="25.28" fill="var(--text-tertiary,#9ca3af)" opacity="0.28" rx="1"/><rect x="527.1111111111112" y="225.78" width="20.444444444444443" height="14.219999999999999" fill="var(--text-tertiary,#9ca3af)" opacity="0.28" rx="1"/><rect x="588.4444444444445" y="230.52" width="20.444444444444443" height="9.48" fill="var(--text-tertiary,#9ca3af)" opacity="0.28" rx="1"/><rect x="619.1111111111112" y="232.1" width="20.444444444444443" height="7.9" fill="var(--text-tertiary,#9ca3af)" opacity="0.28" rx="1"/><rect x="649.7777777777778" y="232.1" width="20.444444444444443" height="7.9" fill="var(--text-tertiary,#9ca3af)" opacity="0.28" rx="1"/><rect x="680.4444444444446" y="238.42" width="20.444444444444443" height="1.58" fill="var(--text-tertiary,#9ca3af)" opacity="0.28" rx="1"/><rect x="711.1111111111111" y="240" width="20.444444444444443" height="0" fill="var(--text-tertiary,#9ca3af)" opacity="0.28" rx="1"/><rect x="772.4444444444446" y="240" width="20.444444444444443" height="0" fill="var(--text-tertiary,#9ca3af)" opacity="0.28" rx="1"/><rect x="833.7777777777778" y="240" width="20.444444444444443" height="0" fill="var(--text-tertiary,#9ca3af)" opacity="0.28" rx="1"/><path d="M476.0 97.8 L537.3 97.8 L598.7 161.0 L629.3 184.7 L660.0 208.4 L690.7 208.4 L721.3 224.2 L782.7 240.0 L844.0 240.0" fill="none" stroke="#d97706" stroke-width="2.5"/><circle cx="476" cy="97.8" r="3" fill="#d97706"/><circle cx="537.3333333333334" cy="97.8" r="3" fill="#d97706"/><circle cx="598.6666666666666" cy="161" r="3" fill="#d97706"/><circle cx="629.3333333333334" cy="184.7" r="3" fill="#d97706"/><circle cx="660" cy="208.4" r="3" fill="#d97706"/><circle cx="690.6666666666667" cy="208.4" r="3" fill="#d97706"/><circle cx="721.3333333333333" cy="224.20000000000002" r="3" fill="#d97706"/><circle cx="782.6666666666667" cy="240" r="3" fill="#d97706"/><circle cx="844" cy="240" r="3" fill="#d97706"/><text x="476" y="255" text-anchor="middle" font-size="9" fill="var(--text-secondary,#6b7280)">6</text><text x="598.6666666666666" y="255" text-anchor="middle" font-size="9" fill="var(--text-secondary,#6b7280)">7</text><text x="660" y="255" text-anchor="middle" font-size="9" fill="var(--text-secondary,#6b7280)">7.5</text><text x="721.3333333333333" y="255" text-anchor="middle" font-size="9" fill="var(--text-secondary,#6b7280)">8</text><text x="844" y="255" text-anchor="middle" font-size="9" fill="var(--text-secondary,#6b7280)">9</text><text x="660" y="271" text-anchor="middle" font-size="10.5" fill="var(--text-secondary,#6b7280)">window W →</text><text x="46" y="308" font-size="14" font-weight="700" fill="var(--text-primary,#1f2937)">L_W low wall (γ→0)</text><text x="414" y="308" text-anchor="end" font-size="11.5" font-weight="700" fill="#dc2626">HARD · at γ=0</text><line x1="46" y1="490" x2="414" y2="490" stroke="var(--grid,#eef2f7)"/><text x="40" y="493" text-anchor="end" font-size="9" fill="var(--text-tertiary,#9ca3af)">0%</text><line x1="46" y1="450.5" x2="414" y2="450.5" stroke="var(--grid,#eef2f7)"/><text x="40" y="453.5" text-anchor="end" font-size="9" fill="var(--text-tertiary,#9ca3af)">25%</text><line x1="46" y1="411" x2="414" y2="411" stroke="var(--grid,#eef2f7)"/><text x="40" y="414" text-anchor="end" font-size="9" fill="var(--text-tertiary,#9ca3af)">50%</text><line x1="46" y1="371.5" x2="414" y2="371.5" stroke="var(--grid,#eef2f7)"/><text x="40" y="374.5" text-anchor="end" font-size="9" fill="var(--text-tertiary,#9ca3af)">75%</text><line x1="46" y1="332" x2="414" y2="332" stroke="var(--grid,#eef2f7)"/><text x="40" y="335" text-anchor="end" font-size="9" fill="var(--text-tertiary,#9ca3af)">100%</text><rect x="36.8" y="490" width="18.4" height="0" fill="var(--text-tertiary,#9ca3af)" opacity="0.28" rx="1"/><rect x="67.46666666666665" y="490" width="18.4" height="0" fill="var(--text-tertiary,#9ca3af)" opacity="0.28" rx="1"/><rect x="87.91111111111111" y="490" width="18.4" height="0" fill="var(--text-tertiary,#9ca3af)" opacity="0.28" rx="1"/><rect x="108.35555555555557" y="490" width="18.4" height="0" fill="var(--text-tertiary,#9ca3af)" opacity="0.28" rx="1"/><rect x="128.8" y="490" width="18.4" height="0" fill="var(--text-tertiary,#9ca3af)" opacity="0.28" rx="1"/><rect x="159.46666666666667" y="490" width="18.4" height="0" fill="var(--text-tertiary,#9ca3af)" opacity="0.28" rx="1"/><rect x="190.13333333333335" y="490" width="18.4" height="0" fill="var(--text-tertiary,#9ca3af)" opacity="0.28" rx="1"/><rect x="231.02222222222224" y="490" width="18.4" height="0" fill="var(--text-tertiary,#9ca3af)" opacity="0.28" rx="1"/><rect x="312.80000000000007" y="490" width="18.4" height="0" fill="var(--text-tertiary,#9ca3af)" opacity="0.28" rx="1"/><rect x="404.8" y="490" width="18.4" height="0" fill="var(--text-tertiary,#9ca3af)" opacity="0.28" rx="1"/><path d="M46.0 490.0 L76.7 490.0 L97.1 490.0 L117.6 490.0 L138.0 490.0 L168.7 490.0 L199.3 490.0 L240.2 490.0 L322.0 490.0 L414.0 490.0" fill="none" stroke="#dc2626" stroke-width="2.5"/><circle cx="46" cy="490" r="3" fill="#dc2626"/><circle cx="76.66666666666666" cy="490" r="3" fill="#dc2626"/><circle cx="97.11111111111111" cy="490" r="3" fill="#dc2626"/><circle cx="117.55555555555557" cy="490" r="3" fill="#dc2626"/><circle cx="138" cy="490" r="3" fill="#dc2626"/><circle cx="168.66666666666666" cy="490" r="3" fill="#dc2626"/><circle cx="199.33333333333334" cy="490" r="3" fill="#dc2626"/><circle cx="240.22222222222223" cy="490" r="3" fill="#dc2626"/><circle cx="322.00000000000006" cy="490" r="3" fill="#dc2626"/><circle cx="414" cy="490" r="3" fill="#dc2626"/><text x="46" y="505" text-anchor="middle" font-size="9" fill="var(--text-secondary,#6b7280)">0</text><text x="97.11111111111111" y="505" text-anchor="middle" font-size="9" fill="var(--text-secondary,#6b7280)">0.05</text><text x="138" y="505" text-anchor="middle" font-size="9" fill="var(--text-secondary,#6b7280)">0.09</text><text x="199.33333333333334" y="505" text-anchor="middle" font-size="9" fill="var(--text-secondary,#6b7280)">0.15</text><text x="322.00000000000006" y="505" text-anchor="middle" font-size="9" fill="var(--text-secondary,#6b7280)">0.27</text><text x="230" y="521" text-anchor="middle" font-size="10.5" fill="var(--text-secondary,#6b7280)">γ →</text><text x="46" y="324" font-size="9.5" fill="var(--text-tertiary,#9ca3af)"><tspan x="46" dy="0">every point γ≥0 is clean — the wall is the sign flip at γ<0, a</tspan><tspan x="46" dy="11">deterministic discontinuity just off the left edge</tspan></text><text x="476" y="308" font-size="14" font-weight="700" fill="var(--text-primary,#1f2937)">L_W high wall (γ→2.4)</text><text x="844" y="308" text-anchor="end" font-size="11.5" font-weight="700" fill="#16a34a">barely a wall</text><line x1="476" y1="490" x2="844" y2="490" stroke="var(--grid,#eef2f7)"/><text x="470" y="493" text-anchor="end" font-size="9" fill="var(--text-tertiary,#9ca3af)">0%</text><line x1="476" y1="450.5" x2="844" y2="450.5" stroke="var(--grid,#eef2f7)"/><text x="470" y="453.5" text-anchor="end" font-size="9" fill="var(--text-tertiary,#9ca3af)">25%</text><line x1="476" y1="411" x2="844" y2="411" stroke="var(--grid,#eef2f7)"/><text x="470" y="414" text-anchor="end" font-size="9" fill="var(--text-tertiary,#9ca3af)">50%</text><line x1="476" y1="371.5" x2="844" y2="371.5" stroke="var(--grid,#eef2f7)"/><text x="470" y="374.5" text-anchor="end" font-size="9" fill="var(--text-tertiary,#9ca3af)">75%</text><line x1="476" y1="332" x2="844" y2="332" stroke="var(--grid,#eef2f7)"/><text x="470" y="335" text-anchor="end" font-size="9" fill="var(--text-tertiary,#9ca3af)">100%</text><rect x="460.6666666666667" y="490" width="30.666666666666668" height="0" fill="var(--text-tertiary,#9ca3af)" opacity="0.28" rx="1"/><rect x="523.7523809523809" y="490" width="30.666666666666668" height="0" fill="var(--text-tertiary,#9ca3af)" opacity="0.28" rx="1"/><rect x="597.3523809523812" y="490" width="30.666666666666668" height="0" fill="var(--text-tertiary,#9ca3af)" opacity="0.28" rx="1"/><rect x="691.9809523809525" y="490" width="30.666666666666668" height="0" fill="var(--text-tertiary,#9ca3af)" opacity="0.28" rx="1"/><rect x="755.0666666666668" y="490" width="30.666666666666668" height="0" fill="var(--text-tertiary,#9ca3af)" opacity="0.28" rx="1"/><rect x="828.6666666666666" y="490" width="30.666666666666668" height="0" fill="var(--text-tertiary,#9ca3af)" opacity="0.28" rx="1"/><path d="M476.0 490.0 L539.1 482.1 L612.7 482.1 L707.3 474.2 L770.4 474.2 L844.0 466.3" fill="none" stroke="#16a34a" stroke-width="2.5"/><circle cx="476" cy="490" r="3" fill="#16a34a"/><circle cx="539.0857142857143" cy="482.1" r="3" fill="#16a34a"/><circle cx="612.6857142857145" cy="482.1" r="3" fill="#16a34a"/><circle cx="707.3142857142859" cy="474.20000000000005" r="3" fill="#16a34a"/><circle cx="770.4000000000002" cy="474.20000000000005" r="3" fill="#16a34a"/><circle cx="844" cy="466.29999999999995" r="3" fill="#16a34a"/><text x="476" y="505" text-anchor="middle" font-size="9" fill="var(--text-secondary,#6b7280)">2.11</text><text x="539.0857142857143" y="505" text-anchor="middle" font-size="9" fill="var(--text-secondary,#6b7280)">2.17</text><text x="612.6857142857145" y="505" text-anchor="middle" font-size="9" fill="var(--text-secondary,#6b7280)">2.24</text><text x="707.3142857142859" y="505" text-anchor="middle" font-size="9" fill="var(--text-secondary,#6b7280)">2.33</text><text x="770.4000000000002" y="505" text-anchor="middle" font-size="9" fill="var(--text-secondary,#6b7280)">2.39</text><text x="844" y="505" text-anchor="middle" font-size="9" fill="var(--text-secondary,#6b7280)">2.46</text><text x="660" y="521" text-anchor="middle" font-size="10.5" fill="var(--text-secondary,#6b7280)">γ →</text><text x="476" y="324" font-size="9.5" fill="var(--text-tertiary,#9ca3af)"><tspan x="476" dy="0">only 3/20 break even at γ=2.46 — the coarse 'REJECT' was a</tspan><tspan x="476" dy="11">1-of-2-seed artifact</tspan></text><text x="46" y="530" font-size="10.5" fill="var(--text-tertiary,#9ca3af)">line = % of 20 seeds that broke · faint bars = mean junk% · the cliffs are statistical edges (some seeds wander into junk), not hard thresholds</text></svg>