<svg viewBox="0 0 900 300" xmlns="http://www.w3.org/2000/svg" role="img" aria-labelledby="t2 d2" font-family="ui-sans-serif,system-ui,sans-serif"><title id="t2">K=20 diversity sweeps</title><desc id="d2">At K=20, L_W diversity sits uniformly below the default; the A gradient is a clean monotone that only beats default at the loosest A.</desc><text x="450" y="24" text-anchor="middle" font-size="16" font-weight="700" fill="var(--text-primary,#1f2937)">Settled diversity at K=20 — one claim dies, one confirms</text><text x="239" y="48" text-anchor="middle" font-size="13.5" font-weight="700" fill="var(--text-primary,#1f2937)">L_W around the supposed peak</text><text x="239" y="64" text-anchor="middle" font-size="10.5" fill="#2563eb">K=20: uniformly BELOW default — the K=6 peak was noise</text><line x1="42" y1="307.06666666666666" x2="436" y2="307.06666666666666" stroke="var(--border,#e5e7eb)" stroke-opacity="0.6"/><text x="36" y="311.06666666666666" text-anchor="end" font-size="9.5" fill="var(--text-tertiary,#9ca3af)">0.30</text><line x1="42" y1="245.73333333333332" x2="436" y2="245.73333333333332" stroke="var(--border,#e5e7eb)" stroke-opacity="0.6"/><text x="36" y="249.73333333333332" text-anchor="end" font-size="9.5" fill="var(--text-tertiary,#9ca3af)">0.40</text><line x1="42" y1="184.40000000000003" x2="436" y2="184.40000000000003" stroke="var(--border,#e5e7eb)" stroke-opacity="0.6"/><text x="36" y="188.40000000000003" text-anchor="end" font-size="9.5" fill="var(--text-tertiary,#9ca3af)">0.50</text><line x1="42" y1="123.06666666666669" x2="436" y2="123.06666666666669" stroke="var(--border,#e5e7eb)" stroke-opacity="0.6"/><text x="36" y="127.06666666666669" text-anchor="end" font-size="9.5" fill="var(--text-tertiary,#9ca3af)">0.60</text><line x1="42" y1="102.82666666666668" x2="436" y2="102.82666666666668" stroke="var(--text-tertiary,#9ca3af)" stroke-width="1.3" stroke-dasharray="6 4"/><text x="436" y="97.82666666666668" text-anchor="end" font-size="9.5" fill="var(--text-tertiary,#9ca3af)">default 0.633</text><line x1="82.7586206896552" y1="258" x2="82.7586206896552" y2="262" stroke="var(--text-tertiary,#9ca3af)"/><text x="82.7586206896552" y="274" text-anchor="middle" font-size="9.5" fill="var(--text-secondary,#6b7280)">0.8</text><line x1="232.20689655172413" y1="258" x2="232.20689655172413" y2="262" stroke="var(--text-tertiary,#9ca3af)"/><text x="232.20689655172413" y="274" text-anchor="middle" font-size="9.5" fill="var(--text-secondary,#6b7280)">1.0</text><line x1="368.06896551724134" y1="258" x2="368.06896551724134" y2="262" stroke="var(--text-tertiary,#9ca3af)"/><text x="368.06896551724134" y="274" text-anchor="middle" font-size="9.5" fill="var(--text-secondary,#6b7280)">1.2</text><text x="239" y="291" text-anchor="middle" font-size="10.5" fill="var(--text-secondary,#6b7280)">OOTF γ →</text><path d="M82.8 232.9 L130.3 234.7 L177.9 238.4 L225.4 226.1 L273.0 221.8 L320.5 217.5 L368.1 219.4 L415.6 220.6" fill="none" stroke="#2563eb" stroke-width="2.5"/><circle cx="82.7586206896552" cy="232.85333333333335" r="3.5" fill="#2563eb" /><circle cx="130.3103448275862" cy="234.69333333333336" r="3.5" fill="#2563eb" /><circle cx="177.86206896551727" cy="238.37333333333336" r="3.5" fill="#2563eb" /><circle cx="225.41379310344828" cy="226.10666666666668" r="3.5" fill="#2563eb" /><circle cx="272.9655172413793" cy="221.81333333333333" r="3.5" fill="#2563eb" /><circle cx="320.51724137931024" cy="217.52" r="3.5" fill="#2563eb" /><circle cx="368.06896551724134" cy="219.36" r="3.5" fill="#2563eb" /><circle cx="415.62068965517244" cy="220.58666666666667" r="3.5" fill="#2563eb" /><text x="689" y="48" text-anchor="middle" font-size="13.5" font-weight="700" fill="var(--text-primary,#1f2937)">A diversity gradient</text><text x="689" y="64" text-anchor="middle" font-size="10.5" fill="#16a34a">clean monotone — the free lever; only loosest A beats default</text><line x1="492" y1="248.8" x2="886" y2="248.8" stroke="var(--border,#e5e7eb)" stroke-opacity="0.6"/><text x="486" y="252.8" text-anchor="end" font-size="9.5" fill="var(--text-tertiary,#9ca3af)">0.30</text><line x1="492" y1="202.8" x2="886" y2="202.8" stroke="var(--border,#e5e7eb)" stroke-opacity="0.6"/><text x="486" y="206.8" text-anchor="end" font-size="9.5" fill="var(--text-tertiary,#9ca3af)">0.40</text><line x1="492" y1="156.8" x2="886" y2="156.8" stroke="var(--border,#e5e7eb)" stroke-opacity="0.6"/><text x="486" y="160.8" text-anchor="end" font-size="9.5" fill="var(--text-tertiary,#9ca3af)">0.50</text><line x1="492" y1="110.80000000000004" x2="886" y2="110.80000000000004" stroke="var(--border,#e5e7eb)" stroke-opacity="0.6"/><text x="486" y="114.80000000000004" text-anchor="end" font-size="9.5" fill="var(--text-tertiary,#9ca3af)">0.60</text><line x1="492" y1="95.62" x2="886" y2="95.62" stroke="var(--text-tertiary,#9ca3af)" stroke-width="1.3" stroke-dasharray="6 4"/><text x="886" y="90.62" text-anchor="end" font-size="9.5" fill="var(--text-tertiary,#9ca3af)">default 0.633</text><line x1="510.76190476190476" y1="258" x2="510.76190476190476" y2="262" stroke="var(--text-tertiary,#9ca3af)"/><text x="510.76190476190476" y="274" text-anchor="middle" font-size="9.5" fill="var(--text-secondary,#6b7280)">0.01</text><line x1="641.9019912897102" y1="258" x2="641.9019912897102" y2="262" stroke="var(--text-tertiary,#9ca3af)"/><text x="641.9019912897102" y="274" text-anchor="middle" font-size="9.5" fill="var(--text-secondary,#6b7280)">0.05</text><line x1="698.3809523809524" y1="258" x2="698.3809523809524" y2="262" stroke="var(--text-tertiary,#9ca3af)"/><text x="698.3809523809524" y="274" text-anchor="middle" font-size="9.5" fill="var(--text-secondary,#6b7280)">0.1</text><line x1="800.4584807019089" y1="258" x2="800.4584807019089" y2="262" stroke="var(--text-tertiary,#9ca3af)"/><text x="800.4584807019089" y="274" text-anchor="middle" font-size="9.5" fill="var(--text-secondary,#6b7280)">0.35</text><line x1="856.937441793151" y1="258" x2="856.937441793151" y2="262" stroke="var(--text-tertiary,#9ca3af)"/><text x="856.937441793151" y="274" text-anchor="middle" font-size="9.5" fill="var(--text-secondary,#6b7280)">0.7</text><text x="689" y="291" text-anchor="middle" font-size="10.5" fill="var(--text-secondary,#6b7280)">A (shoulder) →</text><path d="M510.8 81.8 L641.9 140.2 L698.4 160.0 L754.9 180.7 L800.5 185.8 L856.9 242.4" fill="none" stroke="#16a34a" stroke-width="2.5"/><circle cx="510.76190476190476" cy="81.82" r="5" fill="#16a34a" stroke="#16a34a" stroke-width="2"/><circle cx="641.9019912897102" cy="140.24" r="3.5" fill="#16a34a" /><circle cx="698.3809523809524" cy="160.02000000000004" r="3.5" fill="#16a34a" /><circle cx="754.8599134721946" cy="180.72000000000003" r="3.5" fill="#16a34a" /><circle cx="800.4584807019089" cy="185.78000000000003" r="3.5" fill="#16a34a" /><circle cx="856.937441793151" cy="242.36" r="3.5" fill="#16a34a" /></svg>