<svg viewBox="0 0 900 470" xmlns="http://www.w3.org/2000/svg" role="img" aria-labelledby="ht htd" font-family="ui-sans-serif,system-ui,sans-serif"><title id="ht">HLG diversity terrain — two planes</title><desc id="htd">Heatmaps of self-BLEU diversity across the A×s_m and target_gap×W planes; darker = more diverse; ✗ = incoherent; green outline = above the default contour.</desc><text x="450" y="28" text-anchor="middle" font-size="17" font-weight="700" fill="var(--text-primary,#1f2937)">HLG diversity terrain (e4b) — coherent basin + diversity (self-BLEU)</text><text x="235" y="60" text-anchor="middle" font-size="15" font-weight="700" fill="var(--text-primary,#1f2937)">A × s_m</text><text x="235" y="78" text-anchor="middle" font-size="11" fill="var(--text-secondary,#6b7280)">A (shoulder)  → tighter</text><text x="84" y="215" text-anchor="middle" font-size="11" fill="var(--text-secondary,#6b7280)" transform="rotate(-90 84 215)">s_m →</text><text x="135" y="356" text-anchor="middle" font-size="11" fill="var(--text-secondary,#6b7280)">0.01</text><text x="185" y="356" text-anchor="middle" font-size="11" fill="var(--text-secondary,#6b7280)">0.05</text><text x="235" y="356" text-anchor="middle" font-size="11" fill="var(--text-secondary,#6b7280)">0.2</text><text x="285" y="356" text-anchor="middle" font-size="11" fill="var(--text-secondary,#6b7280)">1</text><text x="335" y="356" text-anchor="middle" font-size="11" fill="var(--text-secondary,#6b7280)">5</text><text x="102" y="119" text-anchor="end" font-size="11" fill="var(--text-secondary,#6b7280)">0.05</text><text x="102" y="169" text-anchor="end" font-size="11" fill="var(--text-secondary,#6b7280)">0.2</text><text x="102" y="219" text-anchor="end" font-size="11" fill="var(--text-secondary,#6b7280)">0.7</text><text x="102" y="269" text-anchor="end" font-size="11" fill="var(--text-secondary,#6b7280)">1.5</text><text x="102" y="319" text-anchor="end" font-size="11" fill="var(--text-secondary,#6b7280)">3</text><rect x="110" y="90" width="48" height="48" rx="4" fill="var(--accent,#2563eb)" fill-opacity="0.78" stroke="var(--positive,#16a34a)" stroke-width="2"/><text x="134" y="118" text-anchor="middle" font-size="11" font-weight="700" fill="#fff">0.81</text><rect x="160" y="90" width="48" height="48" rx="4" fill="var(--accent,#2563eb)" fill-opacity="0.82" stroke="var(--positive,#16a34a)" stroke-width="2"/><text x="184" y="118" text-anchor="middle" font-size="11" font-weight="700" fill="#fff">0.83</text><rect x="210" y="90" width="48" height="48" rx="4" fill="var(--accent,#2563eb)" fill-opacity="0.90" stroke="var(--positive,#16a34a)" stroke-width="2"/><text x="234" y="118" text-anchor="middle" font-size="11" font-weight="700" fill="#fff">0.86</text><rect x="260" y="90" width="48" height="48" rx="4" fill="var(--accent,#2563eb)" fill-opacity="0.80" stroke="var(--positive,#16a34a)" stroke-width="2"/><text x="284" y="118" text-anchor="middle" font-size="11" font-weight="700" fill="#fff">0.82</text><rect x="310" y="90" width="48" height="48" rx="4" fill="var(--accent,#2563eb)" fill-opacity="0.15" stroke="var(--border,#e5e7eb)"/><text x="334" y="118" text-anchor="middle" font-size="11" font-weight="400" fill="var(--text-primary,#1f2937)">0.56</text><rect x="110" y="140" width="48" height="48" rx="4" fill="var(--accent,#2563eb)" fill-opacity="0.87" stroke="var(--positive,#16a34a)" stroke-width="2"/><text x="134" y="168" text-anchor="middle" font-size="11" font-weight="700" fill="#fff">0.85</text><rect x="160" y="140" width="48" height="48" rx="4" fill="var(--accent,#2563eb)" fill-opacity="0.57" stroke="var(--border,#e5e7eb)"/><text x="184" y="168" text-anchor="middle" font-size="11" font-weight="400" fill="#fff">0.73</text><rect x="210" y="140" width="48" height="48" rx="4" fill="var(--accent,#2563eb)" fill-opacity="0.90" stroke="var(--positive,#16a34a)" stroke-width="2"/><text x="234" y="168" text-anchor="middle" font-size="11" font-weight="700" fill="#fff">0.86</text><rect x="260" y="140" width="48" height="48" rx="4" fill="var(--accent,#2563eb)" fill-opacity="0.65" stroke="var(--border,#e5e7eb)"/><text x="284" y="168" text-anchor="middle" font-size="11" font-weight="400" fill="#fff">0.76</text><rect x="310" y="140" width="48" height="48" rx="4" fill="var(--accent,#2563eb)" fill-opacity="0.20" stroke="var(--border,#e5e7eb)"/><text x="334" y="168" text-anchor="middle" font-size="11" font-weight="400" fill="var(--text-primary,#1f2937)">0.58</text><rect x="110" y="190" width="48" height="48" rx="4" fill="var(--accent,#2563eb)" fill-opacity="0.75" stroke="var(--positive,#16a34a)" stroke-width="2"/><text x="134" y="218" text-anchor="middle" font-size="11" font-weight="700" fill="#fff">0.80</text><rect x="160" y="190" width="48" height="48" rx="4" fill="var(--accent,#2563eb)" fill-opacity="0.60" stroke="var(--border,#e5e7eb)"/><text x="184" y="218" text-anchor="middle" font-size="11" font-weight="400" fill="#fff">0.74</text><rect x="210" y="190" width="48" height="48" rx="4" fill="var(--accent,#2563eb)" fill-opacity="0.78" stroke="var(--positive,#16a34a)" stroke-width="2"/><text x="234" y="218" text-anchor="middle" font-size="11" font-weight="700" fill="#fff">0.81</text><rect x="260" y="190" width="48" height="48" rx="4" fill="var(--accent,#2563eb)" fill-opacity="0.55" stroke="var(--border,#e5e7eb)"/><text x="284" y="218" text-anchor="middle" font-size="11" font-weight="400" fill="var(--text-primary,#1f2937)">0.72</text><rect x="310" y="190" width="48" height="48" rx="4" fill="var(--accent,#2563eb)" fill-opacity="0.43" stroke="var(--border,#e5e7eb)"/><text x="334" y="218" text-anchor="middle" font-size="11" font-weight="400" fill="var(--text-primary,#1f2937)">0.67</text><rect x="110" y="240" width="48" height="48" rx="4" fill="var(--accent,#2563eb)" fill-opacity="0.73" stroke="var(--border,#e5e7eb)"/><text x="134" y="268" text-anchor="middle" font-size="11" font-weight="400" fill="#fff">0.79</text><rect x="160" y="240" width="48" height="48" rx="4" fill="var(--accent,#2563eb)" fill-opacity="0.52" stroke="var(--border,#e5e7eb)"/><text x="184" y="268" text-anchor="middle" font-size="11" font-weight="400" fill="var(--text-primary,#1f2937)">0.71</text><rect x="210" y="240" width="48" height="48" rx="4" fill="var(--accent,#2563eb)" fill-opacity="0.60" stroke="var(--border,#e5e7eb)"/><text x="234" y="268" text-anchor="middle" font-size="11" font-weight="400" fill="#fff">0.74</text><rect x="260" y="240" width="48" height="48" rx="4" fill="var(--accent,#2563eb)" fill-opacity="0.40" stroke="var(--border,#e5e7eb)"/><text x="284" y="268" text-anchor="middle" font-size="11" font-weight="400" fill="var(--text-primary,#1f2937)">0.66</text><rect x="310" y="240" width="48" height="48" rx="4" fill="var(--bg-tertiary,#e5e7eb)" stroke="var(--border,#d1d5db)"/><text x="334" y="269" text-anchor="middle" font-size="15" fill="var(--text-tertiary,#9ca3af)">✗</text><rect x="110" y="290" width="48" height="48" rx="4" fill="var(--accent,#2563eb)" fill-opacity="0.70" stroke="var(--border,#e5e7eb)"/><text x="134" y="318" text-anchor="middle" font-size="11" font-weight="400" fill="#fff">0.78</text><rect x="160" y="290" width="48" height="48" rx="4" fill="var(--bg-tertiary,#e5e7eb)" stroke="var(--border,#d1d5db)"/><text x="184" y="319" text-anchor="middle" font-size="15" fill="var(--text-tertiary,#9ca3af)">✗</text><rect x="210" y="290" width="48" height="48" rx="4" fill="var(--bg-tertiary,#e5e7eb)" stroke="var(--border,#d1d5db)"/><text x="234" y="319" text-anchor="middle" font-size="15" fill="var(--text-tertiary,#9ca3af)">✗</text><rect x="260" y="290" width="48" height="48" rx="4" fill="var(--bg-tertiary,#e5e7eb)" stroke="var(--border,#d1d5db)"/><text x="284" y="319" text-anchor="middle" font-size="15" fill="var(--text-tertiary,#9ca3af)">✗</text><rect x="310" y="290" width="48" height="48" rx="4" fill="var(--bg-tertiary,#e5e7eb)" stroke="var(--border,#d1d5db)"/><text x="334" y="319" text-anchor="middle" font-size="15" fill="var(--text-tertiary,#9ca3af)">✗</text><text x="725" y="60" text-anchor="middle" font-size="15" font-weight="700" fill="var(--text-primary,#1f2937)">target_gap × W</text><text x="725" y="78" text-anchor="middle" font-size="11" fill="var(--text-secondary,#6b7280)">target_gap  → sharper</text><text x="574" y="215" text-anchor="middle" font-size="11" fill="var(--text-secondary,#6b7280)" transform="rotate(-90 574 215)">W →</text><text x="625" y="356" text-anchor="middle" font-size="11" fill="var(--text-secondary,#6b7280)">10</text><text x="675" y="356" text-anchor="middle" font-size="11" fill="var(--text-secondary,#6b7280)">13</text><text x="725" y="356" text-anchor="middle" font-size="11" fill="var(--text-secondary,#6b7280)">16</text><text x="775" y="356" text-anchor="middle" font-size="11" fill="var(--text-secondary,#6b7280)">25</text><text x="825" y="356" text-anchor="middle" font-size="11" fill="var(--text-secondary,#6b7280)">50</text><text x="592" y="119" text-anchor="end" font-size="11" fill="var(--text-secondary,#6b7280)">4</text><text x="592" y="169" text-anchor="end" font-size="11" fill="var(--text-secondary,#6b7280)">5</text><text x="592" y="219" text-anchor="end" font-size="11" fill="var(--text-secondary,#6b7280)">6</text><text x="592" y="269" text-anchor="end" font-size="11" fill="var(--text-secondary,#6b7280)">10</text><text x="592" y="319" text-anchor="end" font-size="11" fill="var(--text-secondary,#6b7280)">20</text><rect x="600" y="90" width="48" height="48" rx="4" fill="var(--bg-tertiary,#e5e7eb)" stroke="var(--border,#d1d5db)"/><text x="624" y="119" text-anchor="middle" font-size="15" fill="var(--text-tertiary,#9ca3af)">✗</text><rect x="650" y="90" width="48" height="48" rx="4" fill="var(--bg-tertiary,#e5e7eb)" stroke="var(--border,#d1d5db)"/><text x="674" y="119" text-anchor="middle" font-size="15" fill="var(--text-tertiary,#9ca3af)">✗</text><rect x="700" y="90" width="48" height="48" rx="4" fill="var(--bg-tertiary,#e5e7eb)" stroke="var(--border,#d1d5db)"/><text x="724" y="119" text-anchor="middle" font-size="15" fill="var(--text-tertiary,#9ca3af)">✗</text><rect x="750" y="90" width="48" height="48" rx="4" fill="var(--accent,#2563eb)" fill-opacity="0.70" stroke="var(--border,#e5e7eb)"/><text x="774" y="118" text-anchor="middle" font-size="11" font-weight="400" fill="#fff">0.78</text><rect x="800" y="90" width="48" height="48" rx="4" fill="var(--accent,#2563eb)" fill-opacity="0.17" stroke="var(--border,#e5e7eb)"/><text x="824" y="118" text-anchor="middle" font-size="11" font-weight="400" fill="var(--text-primary,#1f2937)">0.57</text><rect x="600" y="140" width="48" height="48" rx="4" fill="var(--bg-tertiary,#e5e7eb)" stroke="var(--border,#d1d5db)"/><text x="624" y="169" text-anchor="middle" font-size="15" fill="var(--text-tertiary,#9ca3af)">✗</text><rect x="650" y="140" width="48" height="48" rx="4" fill="var(--bg-tertiary,#e5e7eb)" stroke="var(--border,#d1d5db)"/><text x="674" y="169" text-anchor="middle" font-size="15" fill="var(--text-tertiary,#9ca3af)">✗</text><rect x="700" y="140" width="48" height="48" rx="4" fill="var(--accent,#2563eb)" fill-opacity="0.63" stroke="var(--border,#e5e7eb)"/><text x="724" y="168" text-anchor="middle" font-size="11" font-weight="400" fill="#fff">0.75</text><rect x="750" y="140" width="48" height="48" rx="4" fill="var(--accent,#2563eb)" fill-opacity="0.70" stroke="var(--border,#e5e7eb)"/><text x="774" y="168" text-anchor="middle" font-size="11" font-weight="400" fill="#fff">0.78</text><rect x="800" y="140" width="48" height="48" rx="4" fill="var(--accent,#2563eb)" fill-opacity="0.17" stroke="var(--border,#e5e7eb)"/><text x="824" y="168" text-anchor="middle" font-size="11" font-weight="400" fill="var(--text-primary,#1f2937)">0.57</text><rect x="600" y="190" width="48" height="48" rx="4" fill="var(--bg-tertiary,#e5e7eb)" stroke="var(--border,#d1d5db)"/><text x="624" y="219" text-anchor="middle" font-size="15" fill="var(--text-tertiary,#9ca3af)">✗</text><rect x="650" y="190" width="48" height="48" rx="4" fill="var(--accent,#2563eb)" fill-opacity="0.78" stroke="var(--positive,#16a34a)" stroke-width="2"/><text x="674" y="218" text-anchor="middle" font-size="11" font-weight="700" fill="#fff">0.81</text><rect x="700" y="190" width="48" height="48" rx="4" fill="var(--accent,#2563eb)" fill-opacity="0.52" stroke="var(--border,#e5e7eb)"/><text x="724" y="218" text-anchor="middle" font-size="11" font-weight="400" fill="var(--text-primary,#1f2937)">0.71</text><rect x="750" y="190" width="48" height="48" rx="4" fill="var(--accent,#2563eb)" fill-opacity="0.52" stroke="var(--border,#e5e7eb)"/><text x="774" y="218" text-anchor="middle" font-size="11" font-weight="400" fill="var(--text-primary,#1f2937)">0.71</text><rect x="800" y="190" width="48" height="48" rx="4" fill="var(--accent,#2563eb)" fill-opacity="0.07" stroke="var(--border,#e5e7eb)"/><text x="824" y="218" text-anchor="middle" font-size="11" font-weight="400" fill="var(--text-primary,#1f2937)">0.50</text><rect x="600" y="240" width="48" height="48" rx="4" fill="var(--accent,#2563eb)" fill-opacity="0.63" stroke="var(--border,#e5e7eb)"/><text x="624" y="268" text-anchor="middle" font-size="11" font-weight="400" fill="#fff">0.75</text><rect x="650" y="240" width="48" height="48" rx="4" fill="var(--accent,#2563eb)" fill-opacity="0.70" stroke="var(--border,#e5e7eb)"/><text x="674" y="268" text-anchor="middle" font-size="11" font-weight="400" fill="#fff">0.78</text><rect x="700" y="240" width="48" height="48" rx="4" fill="var(--accent,#2563eb)" fill-opacity="0.60" stroke="var(--border,#e5e7eb)"/><text x="724" y="268" text-anchor="middle" font-size="11" font-weight="400" fill="#fff">0.74</text><rect x="750" y="240" width="48" height="48" rx="4" fill="var(--accent,#2563eb)" fill-opacity="0.57" stroke="var(--border,#e5e7eb)"/><text x="774" y="268" text-anchor="middle" font-size="11" font-weight="400" fill="#fff">0.73</text><rect x="800" y="240" width="48" height="48" rx="4" fill="var(--accent,#2563eb)" fill-opacity="0.17" stroke="var(--border,#e5e7eb)"/><text x="824" y="268" text-anchor="middle" font-size="11" font-weight="400" fill="var(--text-primary,#1f2937)">0.57</text><rect x="600" y="290" width="48" height="48" rx="4" fill="var(--accent,#2563eb)" fill-opacity="0.95" stroke="var(--positive,#16a34a)" stroke-width="2"/><text x="624" y="318" text-anchor="middle" font-size="11" font-weight="700" fill="#fff">0.88</text><rect x="650" y="290" width="48" height="48" rx="4" fill="var(--accent,#2563eb)" fill-opacity="0.20" stroke="var(--border,#e5e7eb)"/><text x="674" y="318" text-anchor="middle" font-size="11" font-weight="400" fill="var(--text-primary,#1f2937)">0.58</text><rect x="700" y="290" width="48" height="48" rx="4" fill="var(--accent,#2563eb)" fill-opacity="0.33" stroke="var(--border,#e5e7eb)"/><text x="724" y="318" text-anchor="middle" font-size="11" font-weight="400" fill="var(--text-primary,#1f2937)">0.63</text><rect x="750" y="290" width="48" height="48" rx="4" fill="var(--accent,#2563eb)" fill-opacity="0.25" stroke="var(--border,#e5e7eb)"/><text x="774" y="318" text-anchor="middle" font-size="11" font-weight="400" fill="var(--text-primary,#1f2937)">0.60</text><rect x="800" y="290" width="48" height="48" rx="4" fill="var(--accent,#2563eb)" fill-opacity="0.20" stroke="var(--border,#e5e7eb)"/><text x="824" y="318" text-anchor="middle" font-size="11" font-weight="400" fill="var(--text-primary,#1f2937)">0.58</text><g transform="translate(110,442)"><rect x="0" y="-10" width="16" height="16" rx="3" fill="var(--bg-tertiary,#e5e7eb)" stroke="var(--border,#d1d5db)"/><text x="22" y="3" font-size="11" fill="var(--text-secondary,#6b7280)">✗ incoherent (canary broke)</text><rect x="200" y="-10" width="16" height="16" rx="3" fill="var(--accent,#2563eb)" fill-opacity="0.3"/><rect x="218" y="-10" width="16" height="16" rx="3" fill="var(--accent,#2563eb)" fill-opacity="0.85"/><text x="240" y="3" font-size="11" fill="var(--text-secondary,#6b7280)">diversity: light → dark = more diverse</text><rect x="540" y="-10" width="16" height="16" rx="3" fill="none" stroke="var(--positive,#16a34a)" stroke-width="2"/><text x="562" y="3" font-size="11" fill="var(--text-secondary,#6b7280)">above default contour (0.799)</text></g></svg>
